<?xml version="1.0" encoding="UTF-8"?>
<svg id="Calque_2" data-name="Calque 2" xmlns="http://www.w3.org/2000/svg" viewBox="0 0 59.48 59.48">
  <defs>
    <style>
      .cls-1 {
        fill: #fff;
      }

      .cls-2 {
        fill: #b96124;
      }
    </style>
  </defs>
  <g id="Calque_2-2" data-name="Calque 2">
    <circle class="cls-2" cx="29.74" cy="29.74" r="29.74"/>
    <path class="cls-1" d="M41.9,17.58h0c-1.31-1.31-3.43-1.31-4.73,0l-7.43,7.43-7.43-7.43c-1.31-1.31-3.43-1.31-4.73,0h0c-1.31,1.31-1.31,3.43,0,4.73l7.43,7.43-7.43,7.43c-1.31,1.31-1.31,3.43,0,4.73h0c1.31,1.31,3.43,1.31,4.73,0l7.43-7.43,7.43,7.43c1.31,1.31,3.43,1.31,4.73,0h0c1.31-1.31,1.31-3.43,0-4.73l-7.43-7.43,7.43-7.43c1.31-1.31,1.31-3.43,0-4.73Z"/>
  </g>
</svg>